<?xml version="1.0" encoding="UTF-8"?>
<svg version="1.1" xmlns="http://www.w3.org/2000/svg" width="512" height="512">
<path d="M0 0 C1.54494141 1.10601562 1.54494141 1.10601562 3.12109375 2.234375 C30.33505568 22.13050015 47.48762836 50.4940921 53.4765625 83.609375 C60.943052 131.97439652 40.88938867 179.67102051 12.9609375 218.25 C10.50578504 221.57803398 7.9965387 224.86148414 5.45703125 228.12548828 C4.0231468 229.970221 2.60432805 231.82574325 1.1875 233.68359375 C-4.09622001 240.56306812 -9.64246252 247.06364577 -15.58984375 253.37890625 C-17.85095238 255.8379077 -19.94717924 258.36610236 -22 261 C-21.44650879 261.20568604 -20.89301758 261.41137207 -20.32275391 261.62329102 C8.59937185 272.47886933 8.59937185 272.47886933 16.09375 285.96875 C18.89566658 292.50655534 19.07305929 298.95088144 16.4375 305.5625 C9.49502415 319.30430787 -3.42989462 325.09531034 -17.375 329.8125 C-31.32048046 334.34224093 -45.69975947 337.11433322 -60.390625 337.203125 C-61.16911301 337.21009399 -61.94760101 337.21706299 -62.74967957 337.22424316 C-65.24984192 337.24154953 -67.74978024 337.24796323 -70.25 337.25 C-71.10248322 337.25100708 -71.95496643 337.25201416 -72.83328247 337.25305176 C-85.44402492 337.2429583 -97.6594911 336.82992091 -110 334 C-110.99531738 333.7831958 -110.99531738 333.7831958 -112.01074219 333.56201172 C-129.68049071 329.63007901 -147.04416326 323.19853823 -158 308 C-161.08788958 301.85449427 -161.26648045 294.0932126 -159.2421875 287.55078125 C-158.28718857 285.57686613 -157.23922594 283.80684342 -156 282 C-155.46375 281.154375 -154.9275 280.30875 -154.375 279.4375 C-145.30501749 270.12883374 -132.72225083 264.1563137 -120 262 C-120.36609375 261.58492188 -120.7321875 261.16984375 -121.109375 260.7421875 C-123.07924941 258.50028281 -125.0392437 256.24988477 -127 254 C-127.42893555 253.51192871 -127.85787109 253.02385742 -128.29980469 252.52099609 C-164.17736558 211.65409287 -197.59438101 161.1466287 -197.3125 104.75 C-197.30512817 102.98402466 -197.30512817 102.98402466 -197.29760742 101.18237305 C-197.17234932 91.81242438 -196.29252872 83.07767422 -194 74 C-193.83371094 73.34032227 -193.66742188 72.68064453 -193.49609375 72.00097656 C-190.7101269 61.30595939 -186.29404459 51.67186436 -181 42 C-180.48308594 41.05125 -179.96617187 40.1025 -179.43359375 39.125 C-175.8791162 32.92645605 -171.59653969 27.45671085 -167 22 C-166.41089844 21.28714844 -165.82179687 20.57429688 -165.21484375 19.83984375 C-144.05862434 -5.17172316 -112.22401776 -18.76147076 -80.125 -21.75 C-52.13347028 -23.20164641 -22.86467668 -16.82161685 0 0 Z M-106 73 C-115.05258074 84.51750031 -119.07298942 97.08260585 -117.609375 111.71875 C-116.16808426 119.47954629 -112.77717307 126.72996034 -108 133 C-107.29875 133.969375 -106.5975 134.93875 -105.875 135.9375 C-98.53385279 144.46486917 -87.18291018 150.04826296 -76 151 C-62.07345335 152.00734515 -50.44751656 147.79158023 -39.875 138.875 C-30.15401001 129.74361905 -25.17402321 119.44164467 -24.59960938 106.13598633 C-24.33932401 91.59254132 -29.52740693 80.79666871 -39.3125 70.25 C-48.25945106 61.81998389 -58.78749921 58.0076371 -71 57.625 C-84.47736647 58.04726736 -96.68211684 63.1097653 -106 73 Z " fill="#FE4949" transform="translate(197,175)"/>
<path d="M0 0 C1.87510254 0.00845947 1.87510254 0.00845947 3.78808594 0.01708984 C12.37515633 0.13034319 20.10965428 0.60535737 28.3125 3.3125 C28.94510742 3.51649414 29.57771484 3.72048828 30.22949219 3.93066406 C43.91360036 8.42229441 55.26920247 15.03000554 66.3125 24.3125 C67.14394531 24.95058594 67.97539062 25.58867187 68.83203125 26.24609375 C85.94982905 40.50643239 96.7585106 64.50877371 99.3125 86.3125 C101.29880052 114.33172305 94.77581936 139.8070399 81.3125 164.3125 C80.99168457 164.9111084 80.67086914 165.5097168 80.34033203 166.12646484 C70.27384463 184.88418058 56.86742214 201.84197538 42.3125 217.3125 C44.97017637 219.08428425 46.97269788 219.95996624 49.9375 221 C58.65154383 224.42201137 65.98316882 230.44653555 70.625 238.625 C72.46289805 245.80951056 71.57091228 251.45895106 67.984375 257.95703125 C58.83385102 270.84900779 40.52187848 275.4535067 25.8125 278.0625 C0.25918281 282.10375962 -33.31637473 281.79751505 -56 267.25 C-61.99126335 262.7448508 -67.26990188 257.56529437 -69.6875 250.3125 C-70.20731393 242.51529108 -68.52062209 237.35804638 -63.6875 231.25 C-57.567234 224.57334619 -49.11677846 221.17527382 -40.6875 218.3125 C-41.450625 217.44625 -42.21375 216.58 -43 215.6875 C-47.61142492 210.30569586 -51.93483842 204.69524357 -56.28369141 199.1015625 C-57.57157377 197.46024042 -58.88423974 195.83844421 -60.19921875 194.21875 C-84.82169314 163.45056944 -101.46713085 124.95437195 -97.46044922 85.05126953 C-94.00102344 59.46860232 -80.0992901 35.71713119 -59.81640625 19.84863281 C-48.39063907 11.45454926 -36.39311545 5.98765918 -22.6875 2.3125 C-21.73701782 2.04215942 -21.73701782 2.04215942 -20.76733398 1.76635742 C-13.87884024 -0.01062837 -7.08260454 -0.03314939 0 0 Z M-26.6875 75.3125 C-33.25687897 84.41871505 -35.83502913 93.08910534 -34.6875 104.3125 C-32.05156504 114.77471609 -26.53500461 124.05061313 -17.24609375 129.83203125 C-8.42970565 134.2851414 1.57877218 135.76707336 11.19921875 133.09375 C21.53678677 129.27209824 29.5863153 122.31019839 34.3125 112.3125 C37.83036836 103.69372253 37.59507767 93.64301596 34.3125 85 C29.17872116 74.26053507 22.19751716 68.82776638 11.3125 64.3125 C-2.21153417 59.80448861 -17.50460633 64.71527672 -26.6875 75.3125 Z " fill="#FE4949" transform="translate(412.6875,-0.3125)"/>
<path d="M0 0 C1.02996094 0.73734375 2.05992187 1.4746875 3.12109375 2.234375 C30.33505568 22.13050015 47.48762836 50.4940921 53.4765625 83.609375 C60.943052 131.97439652 40.88938867 179.67102051 12.9609375 218.25 C10.50578504 221.57803398 7.9965387 224.86148414 5.45703125 228.12548828 C4.0231468 229.970221 2.60432805 231.82574325 1.1875 233.68359375 C-4.06750559 240.52596192 -9.57947474 246.99788957 -15.4921875 253.28125 C-18.03562086 255.97384126 -18.03562086 255.97384126 -20.3203125 258.90625 C-22.87532357 262.01665479 -25.82137694 264.52228259 -28.87646484 267.12988281 C-32.54122807 270.35730134 -35.90048149 273.88489159 -39.3125 277.375 C-44.85838173 282.98791787 -50.41090633 288.28118311 -56.640625 293.1328125 C-58.98148753 294.98534941 -61.13411834 296.96083822 -63.3125 299 C-66.46338706 301.75301538 -68.64428289 303.28406851 -73 303 C-77.44324416 300.59324274 -81.17462974 297.2788888 -85 294 C-83.91681133 290.75043399 -83.29783983 290.16607364 -80.75 288.0625 C-67.68879172 276.96047296 -55.08675079 265.08788631 -44 252 C-43.13117188 251.00871094 -42.26234375 250.01742188 -41.3671875 248.99609375 C-15.81435996 219.77217665 5.86914875 187.06751726 18 150 C18.391875 148.83339844 18.78375 147.66679687 19.1875 146.46484375 C29.83552419 113.62038679 26.80386722 77.00695061 11.31640625 46.34375 C-3.76581237 17.56117513 -29.5420332 -4.22354662 -60.4375 -14.25 C-68.52546276 -16.55496649 -76.77455529 -18.2644404 -85 -20 C-85 -20.33 -85 -20.66 -85 -21 C-55.83320657 -24.71733642 -23.82912769 -17.53116658 0 0 Z " fill="#E7343F" transform="translate(197,175)"/>
<path d="M0 0 C3.210269 2.85357244 6.18950568 5.93027022 9.21240234 8.97949219 C11.49388905 11.27986791 13.7781611 13.57745682 16.0625 15.875 C16.83142578 16.65230469 17.60035156 17.42960937 18.39257812 18.23046875 C23.17706514 23.03514347 28.07922882 27.61412314 33.25 32 C34.08789062 32.71929687 34.92578125 33.43859375 35.7890625 34.1796875 C38.83530438 36.6554721 41.67315178 38.73561123 45.25 40.375 C50.35432712 39.73695911 53.50471749 36.34120211 57.25 33 C58.08144531 32.26523437 58.91289062 31.53046875 59.76953125 30.7734375 C61.3873473 29.32709504 62.99763426 27.87225305 64.59765625 26.40625 C66.06198269 25.0777889 67.53468906 23.75777751 69.04052734 22.4765625 C72.72232947 19.33495105 76.16764805 16.10503437 79.46875 12.5625 C80.17386719 11.81355469 80.87898438 11.06460937 81.60546875 10.29296875 C83.05081987 8.74757511 84.48031083 7.18721326 85.89453125 5.61328125 C91.04886964 0.21394688 91.04886964 0.21394688 94.30322266 -0.36572266 C96.43199966 -0.15289649 98.22759035 0.3075611 100.25 1 C102.08691406 1.57621094 102.08691406 1.57621094 103.9609375 2.1640625 C115.65569681 6.82700491 126.97111719 12.49801094 133.34375 23.96875 C136.14566658 30.50655534 136.32305929 36.95088144 133.6875 43.5625 C126.74502415 57.30430787 113.82010538 63.09531034 99.875 67.8125 C85.92951954 72.34224093 71.55024053 75.11433322 56.859375 75.203125 C56.08088699 75.21009399 55.30239899 75.21706299 54.50032043 75.22424316 C52.00015808 75.24154953 49.50021976 75.24796323 47 75.25 C46.14751678 75.25100708 45.29503357 75.25201416 44.41671753 75.25305176 C31.80597508 75.2429583 19.5905089 74.82992091 7.25 72 C6.58645508 71.85546387 5.92291016 71.71092773 5.23925781 71.56201172 C-12.43049071 67.63007901 -29.79416326 61.19853823 -40.75 46 C-43.83788958 39.85449427 -44.01648045 32.0932126 -41.9921875 25.55078125 C-41.03718857 23.57686613 -39.98922594 21.80684342 -38.75 20 C-38.21375 19.154375 -37.6775 18.30875 -37.125 17.4375 C-30.00563884 10.13078723 -21.05742202 5.87906325 -11.75 2 C-10.87472656 1.62230469 -9.99945313 1.24460937 -9.09765625 0.85546875 C-3.58026408 -1.30191421 -3.58026408 -1.30191421 0 0 Z " fill="#FEDA55" transform="translate(79.75,437)"/>
<path d="M0 0 C31.00503543 -0.62861114 31.00503543 -0.62861114 42 3 C42.63260742 3.20399414 43.26521484 3.40798828 43.91699219 3.61816406 C57.60110036 8.10979441 68.95670247 14.71750554 80 24 C80.83144531 24.63808594 81.66289062 25.27617187 82.51953125 25.93359375 C99.63732905 40.19393239 110.4460106 64.19627371 113 86 C114.98630052 114.01922305 108.46331936 139.4945399 95 164 C94.67918457 164.5986084 94.35836914 165.1972168 94.02783203 165.81396484 C89.05584426 175.07867948 83.31994979 183.61221107 77 192 C76.5575293 192.58813477 76.11505859 193.17626953 75.65917969 193.78222656 C66.27105074 206.17563975 55.77141047 217.30258995 44.8125 228.3125 C43.96888916 229.16086426 43.12527832 230.00922852 42.25610352 230.88330078 C37.33138985 235.79495924 32.29300376 240.48897695 27 245 C26.17371094 245.73089844 25.34742188 246.46179688 24.49609375 247.21484375 C21.22587175 249.95140524 18.7111152 251.80605949 14.5625 252.9375 C8.99022762 251.47111253 5.22135687 247.80516676 1 244 C2.59034353 240.05669207 5.32227859 237.41477094 8.3125 234.5 C8.78623047 234.02691406 9.25996094 233.55382812 9.74804688 233.06640625 C11.96945825 230.87234467 14.22427652 228.82077609 16.6640625 226.87109375 C18.74550808 225.20384888 20.36076344 223.60004591 22.0625 221.5625 C24.67760153 218.48890664 27.38143335 215.53216798 30.16430664 212.60961914 C58.99351194 182.14464871 83.16218968 141.7134938 83.1875 98.8125 C83.19974609 97.73935547 83.21199219 96.66621094 83.22460938 95.56054688 C83.27286852 68.96975899 71.87837222 46.46888322 53.875 27.4375 C39.12432622 13.03222767 19.91856651 5.17647362 0 1 C0 0.67 0 0.34 0 0 Z " fill="#E7343F" transform="translate(399,0)"/>
<path d="M0 0 C1.46484375 1.42578125 1.46484375 1.42578125 2.9375 3.3125 C7.59369761 8.88597851 12.95242435 13.62657958 18.32910156 18.48632812 C19.95296823 19.95739378 21.56772629 21.43778329 23.1796875 22.921875 C29.40455152 29.32083326 29.40455152 29.32083326 37.375 32.3515625 C41.55886132 31.94580009 42.88577752 31.11990763 46 28.375 C46.93714844 27.55644531 47.87429688 26.73789063 48.83984375 25.89453125 C49.89543943 24.93210615 50.94867741 23.96709106 52 23 C52.89162842 22.18861572 52.89162842 22.18861572 53.80126953 21.36083984 C61.74319041 14.11647853 69.47857129 6.68070602 77 -1 C89.030563 1.44334452 98.79701293 6.88562594 106 17 C108.57538404 21.36695554 108.73613387 26.05850563 108 31 C104.88030507 40.91941834 98.10986543 45.93342587 89.25 50.6875 C59.93991851 64.37750743 22.30461184 63.74928476 -7.90771484 53.40600586 C-18.38716889 49.56652028 -26.14008317 43.62700621 -32 34 C-33.846404 28.46078801 -33.69480972 23.05511044 -31.08984375 17.78515625 C-25.96392579 9.38893938 -10.72552975 -4.23038823 0 0 Z " fill="#FEDA55" transform="translate(376,219)"/>
<path d="M0 0 C0.66 0 1.32 0 2 0 C2.9081803 1.33993815 3.75119369 2.72428312 4.5625 4.125 C7.93685564 9.32069459 11.63238069 12.02997262 17 15 C17.88558594 15.50273437 18.77117188 16.00546875 19.68359375 16.5234375 C48.87607385 32.12972944 87.83311893 33.8363267 120 28 C120.6997998 27.88172852 121.39959961 27.76345703 122.12060547 27.64160156 C141.12290608 24.35539512 160.7941464 17.62844093 173 2 C173.66 1.34 174.32 0.68 175 0 C177.71018986 5.25099285 177.94666853 10.66115111 176.34765625 16.30078125 C171.74650922 27.73453288 162.98668999 34.10066282 152 39 C134.99786485 45.85811867 116.98954297 50.09203502 98.609375 50.203125 C97.44164299 50.21357849 97.44164299 50.21357849 96.25032043 50.22424316 C93.75015808 50.24154953 91.25021976 50.24796323 88.75 50.25 C87.89751678 50.25100708 87.04503357 50.25201416 86.16671753 50.25305176 C73.55597508 50.2429583 61.3405089 49.82992091 49 47 C48.33645508 46.85546387 47.67291016 46.71092773 46.98925781 46.56201172 C29.31950929 42.63007901 11.95583674 36.19853823 1 21 C-1.02175249 17.04809546 -1.24327775 13.78651265 -1.1875 9.375 C-1.18105469 8.24835938 -1.17460938 7.12171875 -1.16796875 5.9609375 C-1 3 -1 3 0 0 Z " fill="#FFBB25" transform="translate(38,462)"/>
<path d="M0 0 C2.75591774 2.75591774 3.19744595 5.29971984 3.375 9.0625 C3.2556687 15.73420448 0.6931985 21.2696905 -3.984375 26.01171875 C-26.45502662 44.37868754 -59.94116409 45.27529928 -87.44921875 42.53125 C-103.89988018 40.46542211 -121.72609568 35.88446208 -133 23 C-136.96804882 17.48882108 -139.03385056 12.90128815 -138 6 C-136 3 -136 3 -134 1 C-133.6596875 1.44730469 -133.319375 1.89460937 -132.96875 2.35546875 C-121.80256388 16.2835041 -102.42755146 20.21362952 -85.4765625 22.46875 C-81.97829282 22.76788945 -78.5101641 22.91350725 -75 23 C-74.22817383 23.02578125 -73.45634766 23.0515625 -72.66113281 23.078125 C-50.34939664 23.76755679 -22.32600824 21.97640339 -5 6 C-3.14847966 4.06760866 -1.58461414 2.16563932 0 0 Z " fill="#FFBC25" transform="translate(481,236)"/>
<path d="M0 0 C2.60546875 1.5234375 2.60546875 1.5234375 5.1875 3.375 C6.04730469 3.98085938 6.90710938 4.58671875 7.79296875 5.2109375 C10.70970463 7.57530039 11.9117752 9.17068687 12.3125 12.9375 C11.95689391 16.42243965 11.63852497 17.70192986 9 20 C5.32930534 21.34841845 3.0689382 21.46704377 -0.5390625 19.890625 C-5.09928614 17.28093949 -9.41243346 14.70466644 -12 10 C-12.5 6.9375 -12.5 6.9375 -12 4 C-8.48625728 -0.48305106 -5.44514676 -1.59724305 0 0 Z " fill="#1EA4E9" transform="translate(477,344)"/>
<path d="M0 0 C1.13888672 -0.02320313 1.13888672 -0.02320313 2.30078125 -0.046875 C6.01953103 -0.02082421 7.92879521 0.08652259 11.00390625 2.3125 C13.18355852 5.49945893 12.9714315 7.72854802 12.5 11.5 C10.73984869 14.6850357 10.00109084 15.33296972 6.5 16.5 C4.18980664 16.62070269 1.8758126 16.675363 -0.4375 16.6875 C-1.66339844 16.70167969 -2.88929688 16.71585937 -4.15234375 16.73046875 C-7.28032896 16.51512321 -8.93226312 16.21793825 -11.5 14.5 C-13.38886253 11.98151662 -13.50715839 10.67180132 -13.375 7.5 C-11.2413906 0.18476776 -6.73492363 -0.13721406 0 0 Z " fill="#1EA4E9" transform="translate(366.5,462.5)"/>
<path d="M0 0 C1.23492187 -0.01417969 2.46984375 -0.02835937 3.7421875 -0.04296875 C6.88918172 0.17143386 8.54276576 0.46190194 11.125 2.1875 C13.2065902 4.86383026 13.12087591 6.30503668 13 9.75 C12.125 13.1875 12.125 13.1875 10.6015625 14.875 C7.02331949 16.77135592 3.57579214 16.66189195 -0.375 16.625 C-1.13425781 16.64498047 -1.89351563 16.66496094 -2.67578125 16.68554688 C-6.25837466 16.68240975 -8.43739267 16.50408155 -11.375 14.37890625 C-13.57562208 11.16393493 -13.41811243 8.989287 -12.875 5.1875 C-8.999364 0.27836106 -6.06737995 0.03153524 0 0 Z " fill="#1EA4E9" transform="translate(286.875,462.8125)"/>
<path d="M0 0 C2.71604883 1.92982417 3.74692606 3.34200775 4.9375 6.4375 C5.02432892 9.99748583 4.21341152 11.1829308 2 14 C-6.07248764 21.74299835 -6.07248764 21.74299835 -10.8125 22.375 C-14 22 -14 22 -16.875 19.875 C-19 17 -19 17 -19.5625 14 C-18.43929553 8.00957615 -13.83680513 4.59677577 -9.08984375 1.17578125 C-5.87075229 -0.63533376 -3.58462697 -0.68935134 0 0 Z " fill="#1EA4E9" transform="translate(489,445)"/>
<path d="M0 0 C2.4375 1.5625 2.4375 1.5625 4 4 C4.48123704 8.26021426 4.38847391 10.3749247 2.1015625 14.0546875 C1.28429687 14.98539062 0.46703125 15.91609375 -0.375 16.875 C-1.18710937 17.82117188 -1.99921875 18.76734375 -2.8359375 19.7421875 C-5.60052026 22.62653558 -6.36252729 22.94097475 -10.375 23.3125 C-14 23 -14 23 -16.4375 21.4375 C-18.68144979 17.93693832 -18.68412591 16.10475544 -18 12 C-13.9268558 4.76035832 -8.87201603 -1.29047506 0 0 Z " fill="#1EA4E9" transform="translate(284,251)"/>
<path d="M0 0 C4.85536202 3.95182661 6.50078373 9.0785145 8 15 C8 18.96809447 7.91927973 20.90393571 5.375 23.9375 C1.98831357 25.45259656 -0.33417263 25.52368962 -4 25 C-8.60271285 21.18632364 -10.68583635 14.70559249 -12 9 C-11.88030829 6.070155 -11.32379744 4.7051513 -10 2 C-6.2794164 -0.48038907 -4.40203429 -0.46337203 0 0 Z " fill="#1EA4E9" transform="translate(503,372)"/>
<path d="M0 0 C1.20527344 -0.01675781 2.41054688 -0.03351563 3.65234375 -0.05078125 C7.2964895 0.33742672 9.16346822 1.11820523 12.0625 3.3125 C13.60836876 6.40423752 13.35609521 8.90679552 13.0625 12.3125 C11.41748518 14.7390048 10.13736583 16.09247097 7.2043457 16.69287109 C4.97661305 16.8521237 2.79523334 16.85798862 0.5625 16.8125 C-0.19675781 16.82796875 -0.95601563 16.8434375 -1.73828125 16.859375 C-5.4941578 16.83306413 -7.35367292 16.75543506 -10.4140625 14.43359375 C-12.21350456 11.92821673 -12.78715952 10.3944799 -12.9375 7.3125 C-12.21309335 4.48072857 -11.73669524 2.85792234 -9.2890625 1.1875 C-6.12433055 0.00992532 -3.37100236 0.01079296 0 0 Z " fill="#1EA4E9" transform="translate(359.9375,334.6875)"/>
<path d="M0 0 C0.81533203 -0.00708984 1.63066406 -0.01417969 2.47070312 -0.02148438 C8.42774554 0.04214878 8.42774554 0.04214878 10.63452148 1.75366211 C12.79612021 4.54709407 12.87770065 6.9691379 12.9375 10.4375 C10.85124661 13.86491629 9.7630689 15.16231037 5.9375 16.4375 C-0.56124237 16.92514012 -6.521486 17.33118552 -12.0625 13.4375 C-13.60836876 10.34576248 -13.35609521 7.84320448 -13.0625 4.4375 C-9.70935291 -0.63728982 -5.53190647 -0.13621056 0 0 Z " fill="#1EA4E9" transform="translate(406.0625,462.5625)"/>
<path d="M0 0 C1.23492187 -0.01417969 2.46984375 -0.02835937 3.7421875 -0.04296875 C6.88918172 0.17143386 8.54276576 0.46190194 11.125 2.1875 C13.2065902 4.86383026 13.12087591 6.30503668 13 9.75 C12.125 13.1875 12.125 13.1875 10.56640625 14.87109375 C7.15974082 16.70796775 3.96381563 16.70126961 0.1875 16.6875 C-0.86727539 16.73003906 -0.86727539 16.73003906 -1.94335938 16.7734375 C-5.91802556 16.78833784 -7.6939089 16.33022838 -10.84375 13.84765625 C-12.875 11.1875 -12.875 11.1875 -13.4375 8.125 C-12.75678485 4.57015419 -11.67427541 3.410454 -8.875 1.1875 C-5.9336446 -0.2831777 -3.27272595 0.01701001 0 0 Z " fill="#1EA4E9" transform="translate(399.875,334.8125)"/>
<path d="M0 0 C1.97806641 -0.05607422 1.97806641 -0.05607422 3.99609375 -0.11328125 C7.5625 0.3125 7.5625 0.3125 9.98046875 2.1796875 C11.84246319 4.68993185 12.41028986 6.19219218 12.5625 9.3125 C11.84919979 12.10085538 11.3608439 13.74676 8.98046875 15.43359375 C5.53550224 16.6858029 2.18140247 16.68094402 -1.4375 16.6875 C-2.50484375 16.72423828 -2.50484375 16.72423828 -3.59375 16.76171875 C-7.0748302 16.78120241 -9.0665662 16.58322893 -11.91015625 14.5078125 C-14.12798286 11.32004126 -13.91154165 9.10483322 -13.4375 5.3125 C-10.36186844 -0.25292854 -5.80417149 0.08347322 0 0 Z " fill="#1EA4E9" transform="translate(312.4375,237.6875)"/>
<path d="M0 0 C2.3125 1.625 2.3125 1.625 3.3125 3.625 C3.88098448 9.76463236 3.88098448 9.76463236 1.859375 12.82421875 C-1.91127747 15.49027824 -5.24452336 15.17343707 -9.75 15.0625 C-10.97299805 15.07313477 -10.97299805 15.07313477 -12.22070312 15.08398438 C-18.18856785 15.02023561 -18.18856785 15.02023561 -20.38842773 13.27758789 C-22.35642928 10.77403546 -22.56146969 8.77575786 -22.6875 5.625 C-21.47622108 2.81993302 -20.5257369 1.16319684 -17.94140625 -0.49609375 C-12.30616315 -2.69354557 -5.5503295 -2.06961439 0 0 Z " fill="#1EA4E9" transform="translate(256.6875,464.375)"/>
<path d="M0 0 C3.26733552 2.04412338 6.14578646 4.41682612 9 7 C9.57492187 7.50015625 10.14984375 8.0003125 10.7421875 8.515625 C12 10 12 10 12.375 13.4375 C11.98432641 17.14889908 11.79612561 18.57669114 9 21 C5.49559574 22.16813475 3.62135841 22.21612466 0.125 21 C-10.27382725 14.34475056 -10.27382725 14.34475056 -11.6484375 9.90625 C-11.81010227 6.57346869 -11.19465502 4.31144803 -9.4375 1.5 C-5.87461571 -0.69254418 -4.14195143 -0.74690927 0 0 Z " fill="#1EA4E9" transform="translate(283,322)"/>
<path d="M0 0 C1.12148438 -0.02578125 2.24296875 -0.0515625 3.3984375 -0.078125 C6.97072316 0.28515829 8.78682775 1.08830967 11.625 3.25 C13.125 6.0625 13.125 6.0625 13.625 9.25 C11.53197674 14.79651163 11.53197674 14.79651163 8.625 16.25 C5.81809274 16.42724777 3.05869203 16.52750799 0.25 16.5625 C-0.51828125 16.59150391 -1.2865625 16.62050781 -2.078125 16.65039062 C-5.81671017 16.69243354 -7.76205809 16.68087052 -10.88671875 14.484375 C-13.33083922 10.81498679 -12.8581344 8.59820961 -12.375 4.25 C-9.3974028 -0.14550063 -4.91567606 0.06749212 0 0 Z " fill="#1EA4E9" transform="translate(439.375,334.75)"/>
<path d="M0 0 C1.21429688 -0.03738281 2.42859375 -0.07476562 3.6796875 -0.11328125 C7.71585196 0.38551912 9.29286917 1.45419421 12.125 4.3125 C13.29899661 7.36489119 13.25395719 8.85040342 12.375 12 C11.125 14.3125 11.125 14.3125 8.125 16.3125 C5.26595836 16.56061058 2.54615622 16.68269957 -0.3125 16.6875 C-1.07626953 16.71199219 -1.84003906 16.73648437 -2.62695312 16.76171875 C-6.34643397 16.78114163 -8.27968603 16.73255799 -11.3828125 14.54296875 C-13.83445697 10.87833788 -13.35805399 8.65998589 -12.875 4.3125 C-9.81093038 -0.2106504 -5.0414989 0.10125632 0 0 Z " fill="#1EA4E9" transform="translate(320.875,334.6875)"/>
<path d="M0 0 C2.58455285 1.89533875 2.96275506 2.88826517 4 6 C4.19893471 8.49805159 4.32225834 10.93706596 4.375 13.4375 C4.42398437 14.75621094 4.47296875 16.07492187 4.5234375 17.43359375 C4 21 4 21 1.703125 23.4765625 C-1.97339855 25.54859167 -3.99483502 25.11254583 -8 24 C-10.58455285 22.10466125 -10.96275506 21.11173483 -12 18 C-12.19893471 15.50194841 -12.32225834 13.06293404 -12.375 10.5625 C-12.42398437 9.24378906 -12.47296875 7.92507813 -12.5234375 6.56640625 C-12 3 -12 3 -9.703125 0.5234375 C-6.02660145 -1.54859167 -4.00516498 -1.11254583 0 0 Z " fill="#1EA4E9" transform="translate(269,287)"/>
<path d="M0 0 C2.4375 1.5 2.4375 1.5 4 4 C4.9512324 10.77753088 3.05972607 16.92148065 0 23 C-3.7205836 25.48038907 -5.59796571 25.46337203 -10 25 C-12.4375 23.5 -12.4375 23.5 -14 21 C-14.74625653 14.81673159 -13.69032183 8.65168354 -11 3 C-7.43505505 -0.32924611 -4.8413696 -0.6051712 0 0 Z " fill="#1EA4E9" transform="translate(508,411)"/>
<path d="M0 0 C1.2890625 -0.0103125 2.578125 -0.020625 3.90625 -0.03125 C8.00908212 0.57525562 9.68863487 1.48706529 12.5 4.5 C13.1640625 6.5 13.1640625 6.5 13.125 8.5 C13.13789063 9.16 13.15078125 9.82 13.1640625 10.5 C12.09734645 13.71269775 10.35268625 14.76556676 7.5 16.5 C3.90625 17.03125 3.90625 17.03125 0 17 C-1.2890625 17.0103125 -2.578125 17.020625 -3.90625 17.03125 C-8.00908212 16.42474438 -9.68863487 15.51293471 -12.5 12.5 C-13.1640625 10.5 -13.1640625 10.5 -13.125 8.5 C-13.13789063 7.84 -13.15078125 7.18 -13.1640625 6.5 C-11.13013511 0.37428927 -5.6525857 -0.04522069 0 0 Z " fill="#1EA4E9" transform="translate(326.5,462.5)"/>
<path d="M0 0 C1.1240625 -0.03738281 2.248125 -0.07476562 3.40625 -0.11328125 C6.5 0.3125 6.5 0.3125 8.87109375 2.08203125 C10.57901556 4.42069636 11.06807015 5.4605828 11.0625 8.3125 C11.08441406 8.9725 11.10632813 9.6325 11.12890625 10.3125 C10.10567917 13.56648922 8.38434448 14.58189331 5.5 16.3125 C2.64636573 16.70650433 0.27280519 16.87487152 -2.5625 16.8125 C-3.26955078 16.82796875 -3.97660156 16.8434375 -4.70507812 16.859375 C-8.15842241 16.83343439 -10.15596908 16.56547995 -12.96484375 14.5 C-15.21449134 11.29439529 -15.0455488 9.13134158 -14.5 5.3125 C-10.63602079 0.06852821 -6.16665761 0.13436525 0 0 Z " fill="#1EA4E9" transform="translate(447.5,461.6875)"/>
</svg>
